<svg width="39" height="34" viewBox="0 0 39 34" fill="none" xmlns="http://www.w3.org/2000/svg">
<path d="M10.8333 29.75C9.1 29.75 7.36667 28.2625 6.5 27.625C2.16667 24.65 0.866667 23.5875 0 22.95V31.875C0 33.0484 0.97026 34 2.16667 34H19.5C20.6964 34 21.6667 33.0484 21.6667 31.875V22.95C20.8 23.5875 19.5 24.65 15.1667 27.625C14.3 28.2625 12.5667 29.75 10.8333 29.75ZM19.5 17H2.16667C0.97026 17 0 17.9516 0 19.125V20.1875C1.73333 21.4625 1.51667 21.4625 7.8 25.925C8.45 26.35 9.75 27.625 10.8333 27.625C11.9167 27.625 13.2167 26.35 13.8667 26.1375C20.15 21.675 19.9333 21.675 21.6667 20.4V19.125C21.6667 17.9516 20.6964 17 19.5 17ZM36.8333 10.625H15.1667C13.9703 10.625 13 11.5766 13 12.75V14.875H19.5C21.7486 14.875 23.6024 16.563 23.8137 18.7146L23.8333 18.7V27.625H36.8333C38.0297 27.625 39 26.6734 39 25.5V12.75C39 11.5766 38.0297 10.625 36.8333 10.625ZM34.6667 19.125H30.3333V14.875H34.6667V19.125ZM10.8333 12.75C10.8333 10.4065 12.7772 8.5 15.1667 8.5H30.3333V2.125C30.3333 0.951602 29.3631 0 28.1667 0H6.5C5.30359 0 4.33333 0.951602 4.33333 2.125V14.875H10.8333V12.75Z" fill="black"/>
</svg>
